<svg width="1242" height="2688" viewBox="0 0 1242 2688" fill="none" xmlns="http://www.w3.org/2000/svg">
  <defs>
    <linearGradient id="bg" x1="90" y1="40" x2="1140" y2="2640" gradientUnits="userSpaceOnUse">
      <stop stop-color="#141821"/>
      <stop offset="0.45" stop-color="#0D1017"/>
      <stop offset="1" stop-color="#05070B"/>
    </linearGradient>
    <linearGradient id="flareA" x1="234" y1="1220" x2="1012" y2="1876" gradientUnits="userSpaceOnUse">
      <stop stop-color="#FF7A2F"/>
      <stop offset="0.5" stop-color="#FF4D6D"/>
      <stop offset="1" stop-color="#6A63FF"/>
    </linearGradient>
    <linearGradient id="flareB" x1="330" y1="1460" x2="968" y2="2068" gradientUnits="userSpaceOnUse">
      <stop stop-color="#FFD057"/>
      <stop offset="0.45" stop-color="#FF7A2F"/>
      <stop offset="1" stop-color="#25C7B7"/>
    </linearGradient>
    <radialGradient id="glowTop" cx="0" cy="0" r="1" gradientUnits="userSpaceOnUse" gradientTransform="translate(903 316) rotate(135) scale(702 564)">
      <stop stop-color="#242A37"/>
      <stop offset="1" stop-color="#242A37" stop-opacity="0"/>
    </radialGradient>
    <filter id="blurXL" x="122" y="1088" width="994" height="1017" filterUnits="userSpaceOnUse" color-interpolation-filters="sRGB">
      <feGaussianBlur stdDeviation="84"/>
    </filter>
    <filter id="shadow" x="262" y="1287" width="718" height="718" filterUnits="userSpaceOnUse" color-interpolation-filters="sRGB">
      <feOffset dy="20"/>
      <feGaussianBlur stdDeviation="30"/>
      <feColorMatrix type="matrix" values="0 0 0 0 0 0 0 0 0 0 0 0 0 0 0 0 0 0 0.4 0"/>
    </filter>
  </defs>

  <rect width="1242" height="2688" fill="url(#bg)"/>
  <circle cx="903" cy="316" r="702" fill="url(#glowTop)"/>

  <g opacity="0.65">
    <circle cx="178" cy="402" r="2.5" fill="#FFFFFF"/>
    <circle cx="242" cy="482" r="1.8" fill="#FFFFFF" fill-opacity="0.9"/>
    <circle cx="318" cy="342" r="1.7" fill="#FFFFFF" fill-opacity="0.75"/>
    <circle cx="1044" cy="498" r="2.4" fill="#FFFFFF" fill-opacity="0.78"/>
    <circle cx="964" cy="620" r="1.5" fill="#FFFFFF" fill-opacity="0.55"/>
    <circle cx="1112" cy="386" r="1.8" fill="#FFFFFF" fill-opacity="0.8"/>
  </g>

  <rect x="82" y="1082" width="1078" height="1360" rx="54" fill="#11141C" fill-opacity="0.92" stroke="rgba(255,255,255,0.07)"/>

  <text x="126" y="1278" fill="#F6F3EE" font-family="Helvetica, Arial, sans-serif" font-size="118" font-weight="700" letter-spacing="-4">larpxodus</text>
  <text x="130" y="1376" fill="#9CA3AF" font-family="Helvetica, Arial, sans-serif" font-size="42" font-weight="500" letter-spacing="3">DIGITAL ASSET PORTFOLIO</text>

  <g filter="url(#blurXL)" opacity="0.78">
    <path d="M290 1742C420 1522 590 1420 696 1418C826 1416 932 1496 948 1598C965 1707 856 1810 748 1852C640 1895 459 1898 356 1838C254 1777 236 1686 290 1742Z" fill="url(#flareA)"/>
  </g>

  <g filter="url(#shadow)">
    <rect x="352" y="1357" width="538" height="538" rx="136" fill="#0A0C11"/>
    <rect x="381" y="1386" width="480" height="480" rx="112" fill="#12161E" stroke="rgba(255,255,255,0.06)"/>
  </g>

  <g transform="translate(431 1435)">
    <path d="M66 222C158 123 232 66 318 0" stroke="url(#flareA)" stroke-width="26" stroke-linecap="round"/>
    <path d="M0 306C95 205 177 137 292 52" stroke="url(#flareB)" stroke-width="26" stroke-linecap="round"/>
    <path d="M110 318C173 249 235 198 380 96" stroke="url(#flareA)" stroke-width="20" stroke-linecap="round" opacity="0.95"/>
    <path d="M26 386C153 302 218 256 336 170" stroke="#7C7BFF" stroke-width="18" stroke-linecap="round" opacity="0.9"/>
    <circle cx="72" cy="224" r="18" fill="#FF9B45"/>
    <circle cx="317" cy="0" r="18" fill="#6A63FF"/>
    <circle cx="290" cy="52" r="14" fill="#25C7B7"/>
  </g>

  <rect x="126" y="2138" width="990" height="118" rx="28" fill="#181C25"/>
  <text x="166" y="2213" fill="#F8FAFC" font-family="Helvetica, Arial, sans-serif" font-size="56" font-weight="600">$207,129.94</text>
  <text x="844" y="2213" fill="#31D67B" font-family="Helvetica, Arial, sans-serif" font-size="52" font-weight="700">+4.18%</text>

  <rect x="126" y="2286" width="990" height="98" rx="24" fill="#151920"/>
  <text x="166" y="2351" fill="#A7AFBC" font-family="Helvetica, Arial, sans-serif" font-size="40" font-weight="500">Bitcoin  48%   Ethereum  18%   Solana  11%</text>

  <text x="126" y="2528" fill="#80889A" font-family="Helvetica, Arial, sans-serif" font-size="34" font-weight="500">Original cover art for larpxodus</text>
</svg>
